<svg width="151" height="151" viewBox="0 0 151 151" fill="none" xmlns="http://www.w3.org/2000/svg">
<path d="M67.75 41.8571H106.5M44.5 41.8571H52.25M67.75 65H106.5M44.5 65H52.25M67.75 88.1429H106.5M44.5 88.1429H52.25M122 103.571V26.4286C122 22.3367 120.367 18.4123 117.46 15.5189C114.553 12.6255 110.611 11 106.5 11H44.5C40.3891 11 36.4467 12.6255 33.5398 15.5189C30.633 18.4123 29 22.3367 29 26.4286V103.571C29 107.663 30.633 111.588 33.5398 114.481C36.4467 117.374 40.3891 119 44.5 119H106.5C110.611 119 114.553 117.374 117.46 114.481C120.367 111.588 122 107.663 122 103.571Z" stroke="black" stroke-width="4" stroke-linecap="round" stroke-linejoin="round"/>
</svg>
