<svg width="18" height="18" viewBox="0 0 18 18" fill="none" xmlns="http://www.w3.org/2000/svg">
<path d="M9.79082 7.58026L0.808398 16.5592C0.47793 16.8896 0.47793 17.424 0.808398 17.751C1.13887 18.0779 1.67324 18.0814 2.0002 17.751L4.62988 15.1213C4.89004 15.283 5.16777 15.4096 5.4666 15.4904C7.0416 15.9193 9.49199 15.9791 11.8826 14.3935C12.3115 14.1088 12.0865 13.5006 11.5732 13.5006H11.0072C10.8279 13.5006 10.6838 13.3564 10.6838 13.1771C10.6838 13.033 10.7787 12.91 10.9123 12.8678L14.3471 11.8377C14.4666 11.8025 14.5721 11.7287 14.6424 11.6232C14.7971 11.3982 14.9447 11.1697 15.0854 10.9342C15.3033 10.5721 15.0326 10.1256 14.6107 10.1256H13.2537C13.0744 10.1256 12.9303 9.98143 12.9303 9.80214C12.9303 9.658 13.0252 9.53495 13.1588 9.49276L16.0029 8.63847C16.1646 8.58925 16.2982 8.46972 16.3615 8.31151C17.3846 5.73105 17.8521 3.02753 17.9963 1.29433C18.0244 0.94628 17.8908 0.605264 17.6447 0.35917C17.3986 0.113076 17.0576 -0.0205173 16.7096 0.00760775C13.7635 0.24667 8.03301 1.4244 4.83027 4.62714C2.01426 7.44315 1.99316 10.6283 2.50645 12.5303C2.58027 12.808 2.92832 12.8678 3.13223 12.6639L8.91543 6.88417C9.1334 6.6662 9.49199 6.6662 9.70996 6.88417C9.89981 7.07401 9.92441 7.3623 9.7873 7.58026H9.79082Z" fill="black"/>
</svg>